<svg preserveAspectRatio="none" overflow="visible" style="display: block;" width="20" height="20" viewBox="0 0 20 20" fill="none" xmlns="http://www.w3.org/2000/svg">
<g id="logo googleg 48dp">
<path id="Shape" fill-rule="evenodd" clip-rule="evenodd" d="M19.6 10.2273C19.6 9.5182 19.5364 8.83639 19.4182 8.18184H10V12.05H15.3818C15.15 13.3 14.4455 14.3591 13.3864 15.0682V17.5773H16.6182C18.5091 15.8364 19.6 13.2728 19.6 10.2273Z" fill="#4285F4"/>
<path id="Shape_2" fill-rule="evenodd" clip-rule="evenodd" d="M9.99984 19.9999C12.6998 19.9999 14.9635 19.1044 16.618 17.5772L13.3862 15.0681C12.4907 15.6681 11.3453 16.0226 9.99984 16.0226C7.39529 16.0226 5.19075 14.2635 4.40439 11.8999H1.06348V14.4908C2.70893 17.759 6.09075 19.9999 9.99984 19.9999Z" fill="#34A853"/>
<path id="Shape_3" fill-rule="evenodd" clip-rule="evenodd" d="M4.40455 11.9C4.20455 11.3 4.09091 10.6591 4.09091 10C4.09091 9.34096 4.20455 8.70005 4.40455 8.10005V5.50914H1.06364C0.386364 6.85914 0 8.38641 0 10C0 11.6137 0.386364 13.141 1.06364 14.491L4.40455 11.9Z" fill="#FBBC05"/>
<path id="Shape_4" fill-rule="evenodd" clip-rule="evenodd" d="M9.99997 3.97727C11.4682 3.97727 12.7863 4.48182 13.8227 5.47273L16.6909 2.60455C14.9591 0.990909 12.6954 0 9.99997 0C6.09088 0 2.70906 2.24091 1.0636 5.50909L4.40451 8.1C5.19088 5.73636 7.39542 3.97727 9.99997 3.97727Z" fill="#EA4335"/>
<g id="Shape_5">
</g>
</g>
</svg>
